<?xml version="1.0" encoding="UTF-8" standalone="no"?>
<!-- Created with Inkscape (http://www.inkscape.org/) -->

<svg
   xmlns:dc="http://purl.org/dc/elements/1.1/"
   xmlns:cc="http://creativecommons.org/ns#"
   xmlns:rdf="http://www.w3.org/1999/02/22-rdf-syntax-ns#"
   xmlns:svg="http://www.w3.org/2000/svg"
   xmlns="http://www.w3.org/2000/svg"
   xmlns:sodipodi="http://sodipodi.sourceforge.net/DTD/sodipodi-0.dtd"
   xmlns:inkscape="http://www.inkscape.org/namespaces/inkscape"
   width="240"
   height="42.900002"
   viewBox="0 0 63.499999 11.350626"
   version="1.1"
   id="svg1478"
   inkscape:version="0.92.3 (2405546, 2018-03-11)"
   sodipodi:docname="logo-tours-correcaminos-vertical.svg"
   inkscape:export-filename="/home/ollorente/Documentos/TOURS CORRECAMINOS/WEB/img/logo-tours-correcaminos.png"
   inkscape:export-xdpi="96"
   inkscape:export-ydpi="96">
  <defs
     id="defs1472" />
  <sodipodi:namedview
     id="base"
     pagecolor="#ffffff"
     bordercolor="#666666"
     borderopacity="1.0"
     inkscape:pageopacity="0.0"
     inkscape:pageshadow="2"
     inkscape:zoom="2.8"
     inkscape:cx="113.16512"
     inkscape:cy="28.539051"
     inkscape:document-units="mm"
     inkscape:current-layer="layer1"
     showgrid="false"
     units="px" />
  <metadata
     id="metadata1475">
    <rdf:RDF>
      <cc:Work
         rdf:about="">
        <dc:format>image/svg+xml</dc:format>
        <dc:type
           rdf:resource="http://purl.org/dc/dcmitype/StillImage" />
        <dc:title></dc:title>
      </cc:Work>
    </rdf:RDF>
  </metadata>
  <g
     inkscape:label="Capa 1"
     inkscape:groupmode="layer"
     id="layer1"
     transform="translate(0,-285.64936)">
    <g
       id="g3142"
       style="fill:#ffffff"
       inkscape:export-filename="/home/ollorente/Documentos/TOURS CORRECAMINOS/WEB/img/logo-tours-correcaminos-vertical.png"
       inkscape:export-xdpi="96"
       inkscape:export-ydpi="96">
      <g
         id="g3134"
         style="fill:#ffffff">
        <g
           id="g3127"
           style="fill:#ffffff">
          <g
             id="g3121"
             style="fill:#ffffff">
            <g
               id="g3116"
               style="fill:#ffffff">
              <path
                 sodipodi:nodetypes="cccscccscccccsccccsscccsssccsssccsssccsssccccssccccccccsscsccccccsccccccsscccccccccccscccsscccscccssccsssscccscccssccsssscc"
                 inkscape:connector-curvature="0"
                 id="path3959"
                 style="display:inline;opacity:1;fill:#ffffff;fill-opacity:1;fill-rule:nonzero;stroke:none;stroke-width:0.4909409"
                 d="m 23.097731,285.64951 -0.07069,0.76191 c -0.104813,-0.0524 -0.240905,-0.085 -0.408608,-0.0981 -0.167557,-0.0132 -0.280129,-0.0195 -0.337715,-0.0195 h -0.76975 l -0.926941,3.70095 c -0.02091,0.0838 -0.03928,0.17547 -0.05498,0.27497 -0.01573,0.0981 -0.02353,0.19248 -0.02353,0.28143 0,0.0525 0.0026,0.0917 0.0078,0.11786 h -1.665274 c 0.05764,-0.10482 0.107417,-0.21208 0.149344,-0.32206 0.04188,-0.10869 0.07845,-0.22657 0.10992,-0.3522 l 0.926847,-3.70099 h -0.769743 c -0.225147,0 -0.383525,0.008 -0.475232,0.0235 -0.09156,0.0159 -0.202904,0.0472 -0.333837,0.0942 l 0.322007,-0.76191 z m 0.266924,5.01939 c -0.534143,0 -0.801165,-0.2174 -0.801165,-0.65057 0,-0.11014 0.01573,-0.23313 0.04714,-0.36924 l 0.746227,-2.97964 c 0.08375,-0.3457 0.232954,-0.60091 0.447689,-0.76863 0.214738,-0.16752 0.487063,-0.25131 0.816876,-0.25131 h 2.96921 c 0.528987,0 0.793407,0.21736 0.793407,0.65071 0,0.10999 -0.01576,0.233 -0.04718,0.36923 l -0.746228,2.97964 c -0.167557,0.6794 -0.586427,1.01981 -1.256761,1.01981 z m 2.372178,-0.64407 c 0.193871,0 0.314248,-0.0995 0.361427,-0.29854 l 0.785406,-3.13411 c 0.01576,-0.0576 0.02368,-0.10478 0.02368,-0.14139 0,-0.10478 -0.0786,-0.1571 -0.235744,-0.1571 h -1.460943 c -0.188567,0 -0.306438,0.0995 -0.353476,0.29849 l -0.785553,3.13411 c -0.01576,0.0577 -0.02353,0.10469 -0.02353,0.14139 0,0.10469 0.07594,0.15715 0.227792,0.15715 z m 5.16872,-4.37532 c -0.0681,0.11522 -0.121803,0.22517 -0.161031,0.32991 -0.03927,0.10343 -0.07463,0.21869 -0.106044,0.34433 l -0.87186,3.48899 c -0.03148,0.1414 0.02617,0.21209 0.172709,0.21209 h 2.277968 c 0.157101,0 0.251309,-0.0707 0.28278,-0.21209 l 0.871863,-3.49555 c 0.05248,-0.21208 0.07865,-0.43455 0.07865,-0.66768 h 0.864051 c -0.06947,0.11398 -0.123177,0.22266 -0.162399,0.32605 -0.0405,0.1034 -0.07586,0.21725 -0.108696,0.34042 l -0.877017,3.48616 c -0.05764,0.24228 -0.196523,0.44645 -0.415139,0.61539 -0.219841,0.16757 -0.455493,0.25137 -0.705531,0.25137 h -3.058314 c -0.219843,0 -0.39393,-0.0603 -0.524912,-0.18067 -0.130934,-0.12054 -0.196375,-0.28151 -0.196375,-0.48566 0,-0.0576 0.0078,-0.12315 0.02355,-0.19633 l 0.871859,-3.48249 c 0.05243,-0.21471 0.0786,-0.43855 0.0786,-0.67424 z m 4.48523,4.34384 c -0.02101,0.0838 -0.03923,0.17538 -0.05499,0.27491 -0.01573,0.0994 -0.02353,0.19382 -0.02353,0.28278 0,0.0525 0.0026,0.0917 0.0078,0.11786 h -1.665218 c 0.05759,-0.10482 0.107268,-0.21208 0.149196,-0.32206 0.04188,-0.10993 0.0786,-0.22657 0.110068,-0.3522 l 0.918892,-3.67089 c 0.05248,-0.21471 0.0786,-0.43855 0.0786,-0.67424 h 3.98251 c 0.534096,0 0.801167,0.21736 0.801167,0.65071 0,0.0942 -0.01576,0.20152 -0.04709,0.32207 l -0.259205,1.01978 c -0.05764,0.23963 -0.161028,0.42948 -0.310371,0.5682 -0.14915,0.13875 -0.373066,0.22909 -0.671606,0.27093 l 0.235751,1.65483 c 0.03148,0.21861 0.107315,0.39675 0.227792,0.53287 h -1.680935 l -0.314247,-2.21514 h -1.09966 z m 0.549852,-2.18374 h 1.720207 c 0.09436,0 0.166284,-0.0246 0.216111,-0.0746 0.04968,-0.0496 0.09033,-0.13609 0.121655,-0.26173 L 38.210695,286.63 c 0.01573,-0.0732 0.02361,-0.1308 0.02361,-0.17265 0,-0.10868 -0.06554,-0.16367 -0.196327,-0.16367 h -1.720355 z m 8.255655,1.83808 c -0.167557,0.6808 -0.586479,1.02121 -1.256806,1.02121 H 39.51478 l 0.06274,-0.76193 c 0.08911,0.0418 0.202907,0.0719 0.341694,0.0904 0.138838,0.0185 0.273702,0.0276 0.404535,0.0276 h 2.065881 c 0.193723,0 0.314247,-0.0995 0.361283,-0.29854 l 0.165051,-0.65986 c 0.01573,-0.0576 0.02353,-0.1047 0.02353,-0.14139 0,-0.1047 -0.0785,-0.15701 -0.235599,-0.15701 h -1.877359 c -0.528937,0 -0.793359,-0.21741 -0.793359,-0.65076 0,-0.10991 0.01573,-0.23169 0.04704,-0.36781 l 0.267215,-1.08146 c 0.08375,-0.34428 0.232952,-0.60091 0.447691,-0.76719 0.214736,-0.16752 0.486914,-0.2513 0.816872,-0.2513 h 3.432658 l -0.07069,0.76191 c -0.104668,-0.0524 -0.240904,-0.085 -0.408464,-0.0981 -0.167556,-0.0132 -0.28013,-0.0196 -0.337766,-0.0196 H 42.15405 c -0.18857,0 -0.306443,0.0981 -0.353479,0.29589 l -0.12568,0.48426 c -0.01573,0.0564 -0.02361,0.10356 -0.02361,0.14015 0,0.10339 0.0786,0.15583 0.235698,0.15583 h 1.877358 c 0.528789,0 0.79336,0.21723 0.79336,0.65187 0,0.11009 -0.01573,0.2331 -0.04719,0.36921 z" />
              <path
                 sodipodi:nodetypes="cscccscccssccsssccccsscccsssccsssccsssccsssccsccccccsscccccccccccscccssccccsccccccsscccccccccccscccssccccccccccsccsccccsccscccccscccscccssccssscccccccccccccccccsccccccccccccccsccccccccccscccccccccccccscccccccccccscccccccccccccccsscccsssccsssccsssccssscscccssccsssscccscccssccsssscc"
                 inkscape:connector-curvature="0"
                 id="path3959-3"
                 style="display:inline;opacity:1;fill:#ffffff;fill-opacity:1;fill-rule:nonzero;stroke:none;stroke-width:0.4909409"
                 d="m 0.80116706,296.99992 c -0.53409321,0 -0.8011668421614,-0.2174 -0.8011668421614,-0.65057 0,-0.11014 0.0157357721614,-0.23314 0.0471872821614,-0.36924 l 0.74618175,-2.97964 c 0.083804,-0.34571 0.23295345,-0.60091 0.44768465,-0.76863 0.2147392,-0.16753 0.4871131,-0.25131 0.8169316,-0.25131 h 2.9221713 l -0.070691,0.7619 c -0.1048141,-0.0523 -0.2409014,-0.085 -0.4086085,-0.0981 -0.1675589,-0.0132 -0.2801307,-0.0195 -0.3377675,-0.0195 H 2.647208 c -0.188569,0 -0.3064401,0.0995 -0.3534772,0.29849 l -0.7856023,3.13411 c -0.015736,0.0577 -0.023524,0.10471 -0.023524,0.1414 0,0.10469 0.075996,0.15714 0.2277963,0.15714 h 1.5160763 c 0.1622566,0 0.3049225,-0.007 0.4280479,-0.0198 0.1230333,-0.0129 0.2500866,-0.0457 0.3809247,-0.0981 l -0.3141057,0.76194 z m 4.50879824,0 c -0.5341443,0 -0.8011668,-0.2174 -0.8011668,-0.65057 0,-0.11014 0.015736,-0.23314 0.047187,-0.36924 l 0.7461848,-2.97964 c 0.083744,-0.34571 0.2329394,-0.60091 0.4476786,-0.76863 0.2147392,-0.16753 0.4870621,-0.25131 0.8168808,-0.25131 h 2.9692064 c 0.5289879,0 0.7934089,0.21736 0.7934089,0.65071 0,0.10998 -0.01576,0.23299 -0.04719,0.36923 l -0.7462269,2.97964 c -0.1675539,0.6794 -0.5864286,1.01981 -1.2567584,1.01981 z m 2.3721764,-0.64408 c 0.1938692,0 0.3142509,-0.0995 0.3614281,-0.29854 l 0.7854091,-3.13411 c 0.015756,-0.0575 0.023654,-0.10477 0.023654,-0.14139 0,-0.10477 -0.078599,-0.1571 -0.2357452,-0.1571 h -1.460945 c -0.188567,0 -0.3064431,0.0995 -0.3534753,0.29849 L 6.016926,296.0573 c -0.015756,0.0577 -0.023543,0.1047 -0.023543,0.1414 0,0.10469 0.075946,0.15714 0.2277992,0.15714 z m 3.9826093,-0.0316 c -0.02103,0.0838 -0.03923,0.17537 -0.05499,0.2749 -0.01574,0.0994 -0.02354,0.19381 -0.02354,0.28278 0,0.0525 0.0026,0.0917 0.0078,0.11786 H 9.928807 c 0.057598,-0.10483 0.10728,-0.21208 0.149155,-0.32206 0.04193,-0.10993 0.07865,-0.22657 0.110119,-0.35221 l 0.9189,-3.67089 c 0.05243,-0.2147 0.0786,-0.43855 0.0786,-0.67421 h 3.982462 c 0.534145,0 0.801168,0.21734 0.801168,0.65069 0,0.0942 -0.01574,0.20151 -0.04704,0.32206 l -0.259269,1.01979 c -0.05759,0.23963 -0.16098,0.42948 -0.310326,0.56819 -0.149191,0.13875 -0.373111,0.22909 -0.671603,0.27094 l 0.235749,1.65482 c 0.03148,0.21861 0.107273,0.39675 0.227797,0.53288 h -1.680931 l -0.314236,-2.21513 h -1.09966 z m 0.549853,-2.18376 h 1.720205 c 0.09436,0 0.16628,-0.0246 0.216111,-0.0746 0.04968,-0.0496 0.09033,-0.1361 0.121608,-0.26173 l 0.212085,-0.84329 c 0.01576,-0.0732 0.02365,-0.13079 0.02365,-0.17264 0,-0.10868 -0.06554,-0.16368 -0.196328,-0.16368 h -1.720351 z m 5.121488,2.18376 c -0.021,0.0838 -0.03922,0.17537 -0.05494,0.2749 -0.01576,0.0994 -0.02354,0.19381 -0.02354,0.28278 0,0.0525 0.0026,0.0917 0.0078,0.11786 h -1.665237 c 0.05759,-0.10483 0.10727,-0.21208 0.149198,-0.32206 0.04187,-0.10993 0.0786,-0.22657 0.110068,-0.35221 l 0.918896,-3.67089 c 0.05248,-0.2147 0.07865,-0.43855 0.07865,-0.67421 h 3.982465 c 0.534091,0 0.801164,0.21734 0.801164,0.65069 0,0.0942 -0.01575,0.20151 -0.04704,0.32206 l -0.259266,1.01979 c -0.05764,0.23963 -0.161025,0.42948 -0.310371,0.56819 -0.149149,0.13875 -0.373065,0.22909 -0.671606,0.27094 l 0.235748,1.65482 c 0.03147,0.21861 0.107318,0.39675 0.227846,0.53288 h -1.680982 l -0.31425,-2.21513 H 17.72104 Z m 0.549858,-2.18376 h 1.720203 c 0.09435,0 0.166279,-0.0246 0.216113,-0.0746 0.04968,-0.0496 0.09033,-0.1361 0.121653,-0.26173 l 0.212092,-0.84329 c 0.01573,-0.0732 0.0237,-0.13078 0.0237,-0.17264 0,-0.10868 -0.06559,-0.16368 -0.196374,-0.16368 H 18.26298 Z m 3.306973,2.8593 c 0.05759,-0.10483 0.107416,-0.21208 0.149294,-0.32206 0.04187,-0.10993 0.0785,-0.22657 0.109972,-0.35221 l 0.919038,-3.67089 c 0.05229,-0.2147 0.07845,-0.43855 0.07845,-0.67421 h 4.124002 l -0.07069,0.76188 c -0.104772,-0.0523 -0.240906,-0.085 -0.408561,-0.0981 -0.167561,-0.0132 -0.280133,-0.0195 -0.337772,-0.0195 h -1.900822 l -0.376992,1.51592 h 1.657268 c 0.225193,0 0.383668,-0.008 0.475276,-0.0235 0.09171,-0.0159 0.200406,-0.0472 0.326037,-0.0942 l -0.212083,0.87966 c -0.08906,-0.0419 -0.20428,-0.072 -0.345668,-0.0904 -0.141391,-0.018 -0.277481,-0.0276 -0.408467,-0.0276 h -1.657416 l -0.39275,1.57106 h 1.901021 c 0.162252,0 0.304876,-0.007 0.428048,-0.0198 0.123031,-0.0129 0.250089,-0.0457 0.380874,-0.0981 l -0.314052,0.76194 z m 5.789071,0 c -0.534094,0 -0.801168,-0.2174 -0.801168,-0.65057 0,-0.11014 0.01574,-0.23314 0.04719,-0.36924 l 0.746179,-2.97964 c 0.0838,-0.34571 0.232953,-0.60091 0.447691,-0.76863 0.214739,-0.16753 0.487112,-0.25129 0.816922,-0.25129 h 2.922177 l -0.07069,0.76188 c -0.104819,-0.0523 -0.240907,-0.085 -0.408609,-0.0981 -0.16756,-0.0132 -0.280131,-0.0195 -0.33777,-0.0195 h -1.515874 c -0.18857,0 -0.306446,0.0995 -0.353479,0.29849 l -0.785599,3.13411 c -0.01574,0.0577 -0.02354,0.1047 -0.02354,0.1414 0,0.10469 0.076,0.15714 0.227796,0.15714 h 1.516074 c 0.162252,0 0.304923,-0.007 0.428051,-0.0198 0.123027,-0.0129 0.250084,-0.0457 0.380922,-0.0981 l -0.314101,0.76194 z m 4.826927,-1.42967 -0.506553,0.75413 c -0.14139,0.20942 -0.240906,0.43461 -0.298538,0.67554 h -0.96622 c 0.246202,-0.25669 0.505325,-0.57866 0.777648,-0.96622 l 2.60002,-3.73117 -0.125675,-0.32198 h 1.641752 l 0.832583,4.07026 c 0.05233,0.2722 0.09951,0.48035 0.141393,0.62315 0.04193,0.14391 0.0942,0.25262 0.15715,0.32596 h -1.85384 l 0.04718,-0.11786 c 0.01576,-0.0629 0.02354,-0.13619 0.02354,-0.21991 0,-0.10997 -0.02103,-0.27495 -0.06289,-0.49486 l -0.117728,-0.59704 z m 2.164118,-0.64406 -0.384899,-1.89569 -1.311794,1.89569 z m 6.078427,0.68987 2.365645,-3.63551 h 1.885264 c -0.06819,0.11519 -0.121753,0.22514 -0.161125,0.32989 -0.03928,0.10342 -0.07462,0.2187 -0.106043,0.34432 l -0.919041,3.67089 c -0.02092,0.0838 -0.03928,0.17548 -0.05499,0.27363 -0.01574,0.0994 -0.02354,0.19381 -0.02354,0.28278 0,0.0525 0.0026,0.0917 0.0078,0.11786 H 41.42734 c 0.05764,-0.10483 0.107323,-0.21208 0.149198,-0.32206 0.04187,-0.10993 0.0786,-0.22779 0.110073,-0.35348 l 0.911096,-3.62898 -2.812061,4.30452 h -1.021058 l -0.61274,-4.29936 -0.922919,3.62509 c -0.02227,0.0838 -0.04065,0.17548 -0.05764,0.27363 -0.01714,0.0994 -0.02489,0.19381 -0.02489,0.28278 v 0.11786 h -0.856158 c 0.05764,-0.10483 0.107275,-0.21208 0.1492,-0.32206 0.04188,-0.10993 0.0786,-0.22779 0.109923,-0.35348 l 0.919052,-3.67617 c 0.05248,-0.21208 0.07865,-0.43456 0.07865,-0.66766 h 1.978049 z m 6.717298,-3.63551 c -0.06805,0.11519 -0.121754,0.22514 -0.160978,0.32989 -0.03938,0.10342 -0.07473,0.2187 -0.106046,0.34432 l -0.919041,3.67089 c -0.021,0.0838 -0.03928,0.17548 -0.05498,0.27363 -0.01574,0.0994 -0.02365,0.19381 -0.02365,0.28278 0,0.0525 0.0026,0.0917 0.008,0.11786 h -1.665311 c 0.05764,-0.10483 0.107322,-0.21208 0.149197,-0.32206 0.04188,-0.10993 0.07865,-0.22657 0.109974,-0.35221 l 0.919038,-3.67089 c 0.05244,-0.2147 0.0786,-0.43855 0.0786,-0.67421 z m 2.912846,5.01937 -1.56433,-4.06893 -0.864058,3.39202 c -0.021,0.0838 -0.038,0.17545 -0.0537,0.27627 -0.01447,0.0994 -0.0223,0.19381 -0.0223,0.28278 v 0.11786 h -0.85615 c 0.05764,-0.10483 0.10732,-0.21208 0.149198,-0.32206 0.04188,-0.10993 0.07865,-0.22779 0.10997,-0.35348 l 0.919052,-3.67617 c 0.05243,-0.21208 0.0786,-0.43456 0.0786,-0.66766 h 1.847116 l 1.531785,3.98647 0.84309,-3.31751 c 0.04978,-0.21338 0.07472,-0.43586 0.07472,-0.66896 H 52.7385 c -0.06804,0.11395 -0.121603,0.22263 -0.16098,0.32603 -0.03927,0.1034 -0.07462,0.21724 -0.10604,0.34163 l -1.083947,4.35171 z m 3.481063,0 c -0.534094,0 -0.801165,-0.2174 -0.801165,-0.65057 0,-0.11014 0.01576,-0.23314 0.04719,-0.36924 l 0.746232,-2.97964 c 0.08374,-0.34571 0.232943,-0.60091 0.44768,-0.76863 0.214689,-0.16753 0.487062,-0.25129 0.816881,-0.25129 h 2.969205 c 0.528938,0 0.793358,0.21734 0.793358,0.65069 0,0.10998 -0.01574,0.23299 -0.04719,0.36923 l -0.74618,2.97964 c -0.167557,0.6794 -0.586429,1.01981 -1.256805,1.01981 z m 2.372226,-0.64408 c 0.193822,0 0.3142,-0.0995 0.361381,-0.29854 l 0.785457,-3.13411 c 0.01573,-0.0575 0.0237,-0.10477 0.0237,-0.14139 0,-0.10477 -0.07865,-0.1571 -0.235744,-0.1571 h -1.460959 c -0.188567,0 -0.306443,0.0995 -0.353475,0.29849 l -0.785604,3.13411 c -0.01574,0.0577 -0.02354,0.1047 -0.02354,0.1414 0,0.10469 0.076,0.15714 0.227844,0.15714 z m 7.116721,-0.37713 c -0.167554,0.6808 -0.586478,1.02121 -1.256807,1.02121 h -3.424704 l 0.06279,-0.76194 c 0.08905,0.0418 0.202853,0.0719 0.341642,0.0904 0.138889,0.0185 0.273702,0.0276 0.404537,0.0276 h 2.065879 c 0.193724,0 0.314249,-0.0995 0.361283,-0.29854 l 0.165054,-0.65986 c 0.01574,-0.0575 0.02354,-0.10469 0.02354,-0.14139 0,-0.10468 -0.0785,-0.15701 -0.235601,-0.15701 h -1.877358 c -0.52894,0 -0.793359,-0.21737 -0.793359,-0.65076 0,-0.10991 0.01574,-0.23168 0.04704,-0.36781 l 0.267222,-1.08145 c 0.08375,-0.34429 0.232948,-0.60091 0.447687,-0.76719 0.214739,-0.16753 0.486914,-0.25131 0.816878,-0.25131 h 3.432652 l -0.0707,0.76191 c -0.104667,-0.0523 -0.2409,-0.085 -0.40846,-0.0981 -0.167559,-0.0132 -0.280133,-0.0196 -0.337766,-0.0196 h -2.073686 c -0.188573,0 -0.306447,0.0981 -0.353479,0.2959 l -0.125681,0.48426 c -0.01573,0.0564 -0.02362,0.10355 -0.02362,0.14015 0,0.10339 0.0786,0.15582 0.235705,0.15582 h 1.877351 c 0.528797,0 0.793362,0.21724 0.793362,0.65188 0,0.11009 -0.01574,0.2331 -0.04718,0.36921 z" />
            </g>
          </g>
        </g>
      </g>
    </g>
  </g>
</svg>
