<?xml version="1.0" encoding="UTF-8" standalone="no"?>
<!-- Created with Inkscape (http://www.inkscape.org/) -->

<svg
   xmlns:dc="http://purl.org/dc/elements/1.1/"
   xmlns:cc="http://creativecommons.org/ns#"
   xmlns:rdf="http://www.w3.org/1999/02/22-rdf-syntax-ns#"
   xmlns:svg="http://www.w3.org/2000/svg"
   xmlns="http://www.w3.org/2000/svg"
   xmlns:sodipodi="http://sodipodi.sourceforge.net/DTD/sodipodi-0.dtd"
   xmlns:inkscape="http://www.inkscape.org/namespaces/inkscape"
   width="350"
   height="19"
   viewBox="0 0 92.604165 5.0270835"
   version="1.1"
   id="svg1478"
   inkscape:version="0.92.3 (2405546, 2018-03-11)"
   sodipodi:docname="Logo Tours Correcaminos.svg"
   inkscape:export-filename="/home/ollorente/Documentos/TOURS CORRECAMINOS/WEB/img/logo-tours-correcaminos.png"
   inkscape:export-xdpi="96"
   inkscape:export-ydpi="96">
  <defs
     id="defs1472" />
  <sodipodi:namedview
     id="base"
     pagecolor="#ffffff"
     bordercolor="#666666"
     borderopacity="1.0"
     inkscape:pageopacity="0.0"
     inkscape:pageshadow="2"
     inkscape:zoom="1.979899"
     inkscape:cx="170.05028"
     inkscape:cy="4.8788141"
     inkscape:document-units="mm"
     inkscape:current-layer="layer1"
     showgrid="false"
     units="px" />
  <metadata
     id="metadata1475">
    <rdf:RDF>
      <cc:Work
         rdf:about="">
        <dc:format>image/svg+xml</dc:format>
        <dc:type
           rdf:resource="http://purl.org/dc/dcmitype/StillImage" />
        <dc:title></dc:title>
      </cc:Work>
    </rdf:RDF>
  </metadata>
  <g
     inkscape:label="Capa 1"
     inkscape:groupmode="layer"
     id="layer1"
     transform="translate(0,-291.9729)">
    <path
       d="m 4.6377374,291.98555 -0.070619,0.76114 c -0.1047087,-0.0523 -0.240664,-0.0849 -0.4081989,-0.098 -0.167389,-0.0132 -0.2798486,-0.0195 -0.337377,-0.0195 H 3.0525647 l -0.9260127,3.69724 c -0.02089,0.0837 -0.03924,0.1753 -0.054929,0.2747 -0.01571,0.098 -0.02351,0.19228 -0.02351,0.28115 0,0.0524 0.0026,0.0916 0.0078,0.11774 H 0.39230821 c 0.0575793,-0.10472 0.10730869,-0.21187 0.14919418,-0.32174 0.0418395,-0.10858 0.078369,-0.22634 0.10980966,-0.35185 L 1.5772298,292.62915 H 0.80825813 c -0.22492125,0 -0.38314032,0.008 -0.4747552,0.0235 -0.0914689,0.0159 -0.20270052,0.0472 -0.33350293,0.0941 l 0.32168407,-0.76114 z m 0.2666567,5.01436 c -0.5336085,0 -0.8003622,-0.21718 -0.8003622,-0.64992 0,-0.11003 0.01571,-0.2329 0.04709,-0.36887 l 0.7454798,-2.97665 c 0.083669,-0.34536 0.2327202,-0.60031 0.4472405,-0.76786 0.2145225,-0.16736 0.4865742,-0.25106 0.8160571,-0.25106 h 2.9662339 c 0.5284577,0 0.7926126,0.21714 0.7926126,0.65006 0,0.10987 -0.015741,0.23276 -0.047131,0.36886 l -0.7454813,2.97665 c -0.1673893,0.67872 -0.5858388,1.01879 -1.2555017,1.01879 z m 2.3698001,-0.64343 c 0.1936767,0 0.3139332,-0.0994 0.3610656,-0.29824 l 0.7846182,-3.13097 c 0.015741,-0.0575 0.023665,-0.10467 0.023665,-0.14125 0,-0.10467 -0.078519,-0.15694 -0.2355088,-0.15694 H 6.7485517 c -0.1883778,0 -0.3061313,0.0994 -0.3531218,0.29819 l -0.7847654,3.13097 c -0.01574,0.0576 -0.02351,0.10459 -0.02351,0.14125 0,0.10459 0.075859,0.15699 0.2275642,0.15699 z m 5.1635398,-4.37093 c -0.06803,0.1151 -0.121679,0.22494 -0.160868,0.32958 -0.03923,0.10332 -0.07455,0.21847 -0.105938,0.34398 l -0.870986,3.4855 c -0.03145,0.14125 0.02614,0.21187 0.172536,0.21187 h 2.275685 c 0.156944,0 0.251057,-0.0706 0.282497,-0.21187 l 0.870989,-3.49205 c 0.05243,-0.21187 0.07857,-0.43412 0.07857,-0.66701 h 0.863185 c -0.0694,0.11386 -0.123053,0.22243 -0.162236,0.32572 -0.04046,0.1033 -0.07578,0.21703 -0.108587,0.34008 l -0.876138,3.48267 c -0.05758,0.24203 -0.196326,0.446 -0.414723,0.61477 -0.219621,0.1674 -0.455037,0.25112 -0.704824,0.25112 h -3.055249 c -0.219623,0 -0.393536,-0.0602 -0.5243859,-0.18049 -0.130804,-0.12042 -0.1961797,-0.28123 -0.1961797,-0.48517 0,-0.0576 0.0078,-0.12303 0.023532,-0.19614 l 0.8709856,-3.479 c 0.05238,-0.21449 0.07852,-0.43811 0.07852,-0.67356 z m 4.480737,4.33948 c -0.02099,0.0837 -0.03919,0.17521 -0.05493,0.27464 -0.01571,0.0993 -0.02351,0.19362 -0.02351,0.2825 0,0.0524 0.0026,0.0916 0.0078,0.11774 h -1.66355 c 0.05753,-0.10472 0.107161,-0.21187 0.149047,-0.32174 0.04184,-0.10982 0.07852,-0.22634 0.109958,-0.35185 l 0.917971,-3.66721 c 0.05243,-0.21449 0.07852,-0.43811 0.07852,-0.67356 h 3.978519 c 0.533561,0 0.800364,0.21714 0.800364,0.65006 0,0.0941 -0.01574,0.20131 -0.04704,0.32174 l -0.258946,1.01876 c -0.05758,0.23939 -0.160866,0.42905 -0.31006,0.56763 -0.149,0.13861 -0.372692,0.22886 -0.670933,0.27066 l 0.235515,1.65317 c 0.03145,0.21839 0.107208,0.39635 0.227564,0.53234 h -1.679251 l -0.313932,-2.21292 h -1.098558 z m 0.549301,-2.18155 h 1.718483 c 0.09426,0 0.166117,-0.0246 0.215894,-0.0745 0.04963,-0.0496 0.09024,-0.13596 0.121534,-0.26147 l 0.211874,-0.84244 c 0.01571,-0.0731 0.02359,-0.13066 0.02359,-0.17247 0,-0.10857 -0.06547,-0.16351 -0.19613,-0.16351 h -1.718631 z m 8.247382,1.83624 c -0.167389,0.68012 -0.585891,1.02019 -1.255547,1.02019 h -3.421272 l 0.06268,-0.76117 c 0.08902,0.0418 0.202704,0.0718 0.341352,0.0903 0.138699,0.0185 0.273428,0.0276 0.40413,0.0276 h 2.06381 c 0.193529,0 0.313932,-0.0994 0.360921,-0.29824 l 0.164886,-0.6592 c 0.01571,-0.0575 0.02351,-0.10459 0.02351,-0.14125 0,-0.10459 -0.07842,-0.15685 -0.235363,-0.15685 h -1.875477 c -0.528407,0 -0.792564,-0.21719 -0.792564,-0.65011 0,-0.1098 0.01571,-0.23145 0.04699,-0.36744 l 0.266948,-1.08037 c 0.08367,-0.34394 0.232717,-0.60031 0.447241,-0.76642 0.214522,-0.16736 0.486426,-0.25105 0.816055,-0.25105 h 3.429217 l -0.07062,0.76114 c -0.104564,-0.0523 -0.240664,-0.0849 -0.408056,-0.098 -0.167387,-0.0132 -0.279848,-0.0196 -0.337428,-0.0196 h -2.071604 c -0.188381,0 -0.306135,0.098 -0.353124,0.2956 l -0.125554,0.48377 c -0.01571,0.0563 -0.02359,0.10346 -0.02359,0.14001 0,0.10329 0.07852,0.15567 0.235462,0.15567 h 1.875477 c 0.528259,0 0.792565,0.21702 0.792565,0.65122 0,0.10998 -0.01571,0.23287 -0.04714,0.36884 z m 4.253025,1.02019 c -0.533559,0 -0.800365,-0.21718 -0.800365,-0.64992 0,-0.11003 0.01571,-0.2329 0.04714,-0.36887 l 0.745432,-2.97665 c 0.08372,-0.34536 0.232721,-0.60031 0.447238,-0.76786 0.214524,-0.16736 0.486624,-0.25106 0.816111,-0.25106 h 2.919244 l -0.07062,0.76114 c -0.104709,-0.0523 -0.240661,-0.0849 -0.4082,-0.098 -0.167392,-0.0132 -0.279849,-0.0195 -0.337429,-0.0195 h -1.51436 c -0.18838,0 -0.306134,0.0994 -0.353123,0.29819 l -0.784815,3.13097 c -0.01571,0.0576 -0.02351,0.1046 -0.02351,0.14125 0,0.10459 0.07592,0.15699 0.227569,0.15699 h 1.514558 c 0.162094,0 0.304617,-0.007 0.427618,-0.0198 0.122911,-0.0129 0.249835,-0.0457 0.380542,-0.098 l -0.313789,0.76118 z m 4.504279,0 c -0.533608,0 -0.800364,-0.21718 -0.800364,-0.64992 0,-0.11003 0.01571,-0.2329 0.04714,-0.36887 l 0.745437,-2.97665 c 0.08366,-0.34536 0.232708,-0.60031 0.447232,-0.76786 0.214525,-0.16736 0.486574,-0.25106 0.816061,-0.25106 h 2.966231 c 0.528458,0 0.792615,0.21714 0.792615,0.65006 0,0.10987 -0.01574,0.23276 -0.04714,0.36886 l -0.745481,2.97665 c -0.167386,0.67872 -0.585839,1.01879 -1.255496,1.01879 z m 2.369799,-0.64343 c 0.193675,0 0.313937,-0.0994 0.361068,-0.29824 l 0.78462,-3.13097 c 0.01574,-0.0575 0.02364,-0.10467 0.02364,-0.14125 0,-0.10467 -0.07852,-0.15694 -0.23551,-0.15694 h -1.45948 c -0.18838,0 -0.306137,0.0994 -0.353122,0.29819 l -0.784764,3.13097 c -0.01574,0.0576 -0.02351,0.10459 -0.02351,0.14125 0,0.10459 0.07587,0.15699 0.227569,0.15699 z m 3.978619,-0.0316 c -0.021,0.0837 -0.03919,0.17519 -0.05493,0.27462 -0.01571,0.0993 -0.02351,0.19362 -0.02351,0.2825 0,0.0524 0.0026,0.0916 0.0078,0.11774 h -1.663554 c 0.05754,-0.10472 0.107172,-0.21187 0.149004,-0.32174 0.04189,-0.10982 0.07857,-0.22634 0.110009,-0.35185 l 0.917974,-3.66721 c 0.05238,-0.21449 0.07852,-0.43811 0.07852,-0.67354 h 3.978471 c 0.53361,0 0.800364,0.21712 0.800364,0.65004 0,0.0941 -0.01571,0.20131 -0.04699,0.32174 l -0.259008,1.01876 c -0.05753,0.23939 -0.160819,0.42905 -0.310013,0.56763 -0.149045,0.13861 -0.372738,0.22886 -0.670933,0.27066 l 0.235514,1.65317 c 0.03145,0.21839 0.107164,0.39635 0.227569,0.53234 h -1.679247 l -0.31392,-2.21291 h -1.098558 z m 0.549301,-2.18157 h 1.718484 c 0.09426,0 0.166113,-0.0246 0.215893,-0.0745 0.04963,-0.0496 0.09024,-0.13596 0.121486,-0.26147 l 0.211875,-0.84244 c 0.01574,-0.0731 0.02364,-0.13066 0.02364,-0.17247 0,-0.10857 -0.06547,-0.16351 -0.196131,-0.16351 h -1.718628 z m 5.116357,2.18157 c -0.02099,0.0837 -0.03918,0.17519 -0.05488,0.27462 -0.01574,0.0993 -0.02351,0.19362 -0.02351,0.2825 0,0.0524 0.0026,0.0916 0.0078,0.11774 h -1.663567 c 0.05753,-0.10472 0.10716,-0.21187 0.149046,-0.32174 0.04183,-0.10982 0.07852,-0.22634 0.109959,-0.35185 l 0.91797,-3.66721 c 0.05243,-0.21449 0.07857,-0.43811 0.07857,-0.67354 h 3.978472 c 0.533558,0 0.800364,0.21712 0.800364,0.65004 0,0.0941 -0.01574,0.20131 -0.04699,0.32174 l -0.259006,1.01876 c -0.05758,0.23939 -0.160866,0.42905 -0.310061,0.56763 -0.148999,0.13861 -0.372691,0.22886 -0.670933,0.27066 l 0.235512,1.65317 c 0.03144,0.21839 0.10721,0.39635 0.227618,0.53234 H 48.2836 l -0.313937,-2.21291 h -1.098552 z m 0.549306,-2.18157 h 1.718481 c 0.09426,0 0.166113,-0.0246 0.215896,-0.0745 0.04963,-0.0496 0.09024,-0.13596 0.121533,-0.26147 l 0.211876,-0.84244 c 0.01571,-0.0731 0.02367,-0.13065 0.02367,-0.17247 0,-0.10857 -0.06552,-0.16351 -0.196177,-0.16351 h -1.718633 z m 3.303661,2.85643 c 0.05753,-0.10472 0.107308,-0.21187 0.149144,-0.32174 0.04183,-0.10982 0.07842,-0.22634 0.109861,-0.35185 l 0.918118,-3.66721 c 0.05224,-0.21449 0.07837,-0.43811 0.07837,-0.67354 h 4.119868 l -0.07062,0.76112 c -0.104666,-0.0523 -0.240665,-0.0849 -0.408152,-0.098 -0.167392,-0.0132 -0.279851,-0.0195 -0.337432,-0.0195 h -1.898919 l -0.376613,1.5144 h 1.655606 c 0.224968,0 0.383285,-0.008 0.474802,-0.0235 0.09162,-0.0159 0.200203,-0.0472 0.32571,-0.0941 l -0.21187,0.87878 c -0.08897,-0.0419 -0.204077,-0.0719 -0.345323,-0.0903 -0.14125,-0.018 -0.277202,-0.0276 -0.408057,-0.0276 h -1.655755 l -0.392357,1.56949 h 1.899115 c 0.162091,0 0.30457,-0.007 0.427622,-0.0198 0.122905,-0.0129 0.249836,-0.0457 0.380491,-0.098 l -0.313738,0.76117 z m 5.783269,0 c -0.533558,0 -0.800365,-0.21718 -0.800365,-0.64992 0,-0.11003 0.01571,-0.2329 0.04714,-0.36887 l 0.745432,-2.97665 c 0.08372,-0.34536 0.232718,-0.60031 0.447241,-0.76786 0.214522,-0.16736 0.486622,-0.25104 0.816104,-0.25104 h 2.919249 l -0.07062,0.76112 c -0.104714,-0.0523 -0.240666,-0.0849 -0.408201,-0.098 -0.167391,-0.0132 -0.27985,-0.0195 -0.33743,-0.0195 h -1.514357 c -0.188379,0 -0.306139,0.0994 -0.353123,0.29819 l -0.784813,3.13097 c -0.01571,0.0576 -0.02351,0.10459 -0.02351,0.14125 0,0.10459 0.07592,0.15699 0.227569,0.15699 h 1.514553 c 0.162091,0 0.304617,-0.007 0.427623,-0.0198 0.122905,-0.0129 0.249834,-0.0457 0.380539,-0.098 l -0.313786,0.76117 z m 4.822089,-1.42824 -0.506043,0.75338 c -0.141249,0.20921 -0.240665,0.43417 -0.29824,0.67486 h -0.965253 c 0.245958,-0.25643 0.50482,-0.57808 0.776871,-0.96525 l 2.597413,-3.72743 -0.12555,-0.32166 h 1.640107 l 0.831751,4.06618 c 0.05228,0.27193 0.09941,0.47987 0.141251,0.62253 0.04189,0.14376 0.09411,0.25237 0.156991,0.32563 h -1.851981 l 0.04713,-0.11774 c 0.01574,-0.0628 0.02351,-0.13605 0.02351,-0.21969 0,-0.10986 -0.021,-0.27467 -0.06283,-0.49436 l -0.11761,-0.59645 z m 2.16195,-0.64341 -0.384513,-1.89379 -1.310479,1.89379 z m 6.072336,0.68918 2.363275,-3.63187 h 1.883375 c -0.06812,0.11508 -0.121632,0.22492 -0.160963,0.32956 -0.03924,0.10332 -0.07455,0.21848 -0.105939,0.34398 l -0.918118,3.66721 c -0.02089,0.0837 -0.03924,0.1753 -0.05493,0.27335 -0.01571,0.0993 -0.02351,0.19362 -0.02351,0.2825 0,0.0524 0.0026,0.0916 0.0078,0.11774 h -1.616481 c 0.05758,-0.10472 0.107213,-0.21187 0.149048,-0.32174 0.04183,-0.10982 0.07852,-0.22756 0.109963,-0.35312 l 0.910174,-3.62534 -2.809242,4.3002 h -1.020035 l -0.612127,-4.29505 -0.921995,3.62146 c -0.02226,0.0837 -0.04061,0.1753 -0.05758,0.27335 -0.01711,0.0993 -0.02486,0.19362 -0.02486,0.2825 0,0.0524 0,0.0916 0,0.11774 h -0.855299 c 0.05758,-0.10472 0.107166,-0.21187 0.149048,-0.32174 0.04184,-0.10982 0.07852,-0.22756 0.109814,-0.35312 l 0.918119,-3.67249 c 0.05243,-0.21187 0.07857,-0.43412 0.07857,-0.66699 h 1.976065 z m 6.710568,-3.63187 c -0.06798,0.11508 -0.121634,0.22492 -0.160818,0.32956 -0.03934,0.10332 -0.07465,0.21848 -0.105939,0.34398 l -0.918119,3.66721 c -0.02099,0.0837 -0.03924,0.1753 -0.05493,0.27335 -0.01571,0.0993 -0.02364,0.19362 -0.02364,0.2825 0,0.0524 0.0026,0.0916 0.008,0.11774 h -1.663641 c 0.05758,-0.10472 0.107214,-0.21187 0.149046,-0.32174 0.04184,-0.10982 0.07857,-0.22634 0.109863,-0.35185 l 0.91812,-3.66721 c 0.05239,-0.21449 0.07852,-0.43811 0.07852,-0.67354 z m 2.909927,5.01434 -1.562763,-4.06485 -0.863191,3.38862 c -0.02099,0.0837 -0.03796,0.17527 -0.05365,0.27599 -0.01444,0.0993 -0.02227,0.19362 -0.02227,0.2825 0,0.0524 0,0.0916 0,0.11774 h -0.855292 c 0.05758,-0.10472 0.107212,-0.21187 0.149046,-0.32174 0.04184,-0.10982 0.07857,-0.22756 0.109862,-0.35312 l 0.918122,-3.67249 c 0.05238,-0.21187 0.07852,-0.43412 0.07852,-0.66699 h 1.845265 l 1.530249,3.98248 0.842246,-3.31419 c 0.04973,-0.21317 0.07465,-0.43542 0.07465,-0.66829 h 0.863032 c -0.06797,0.11384 -0.121482,0.22241 -0.160819,0.3257 -0.03923,0.1033 -0.07455,0.21703 -0.105935,0.34129 l -1.08286,4.34735 z m 3.477573,0 c -0.533558,0 -0.800361,-0.21718 -0.800361,-0.64992 0,-0.11003 0.01574,-0.2329 0.04714,-0.36887 l 0.745484,-2.97665 c 0.08366,-0.34536 0.232711,-0.60031 0.447233,-0.76786 0.214473,-0.16736 0.486574,-0.25104 0.81606,-0.25104 H 86.499 c 0.528409,0 0.792562,0.21712 0.792562,0.65004 0,0.10987 -0.01571,0.23276 -0.04714,0.36886 l -0.745431,2.97665 c -0.16739,0.67872 -0.585842,1.01879 -1.255548,1.01879 z m 2.369849,-0.64343 c 0.193629,0 0.313887,-0.0994 0.36102,-0.29824 l 0.784669,-3.13097 c 0.01571,-0.0575 0.02367,-0.10467 0.02367,-0.14125 0,-0.10467 -0.07857,-0.15694 -0.23551,-0.15694 h -1.459492 c -0.18838,0 -0.306137,0.0994 -0.353122,0.29819 l -0.784819,3.13097 c -0.01571,0.0576 -0.02351,0.10459 -0.02351,0.14125 0,0.10459 0.07592,0.15699 0.227617,0.15699 z m 7.10959,-0.37676 c -0.167386,0.68012 -0.58589,1.02019 -1.255547,1.02019 h -3.421273 l 0.06273,-0.76117 c 0.08896,0.0418 0.202651,0.0718 0.3413,0.0903 0.138749,0.0185 0.273428,0.0276 0.404132,0.0276 h 2.063808 c 0.193531,0 0.313934,-0.0994 0.360921,-0.29824 l 0.164888,-0.6592 c 0.01571,-0.0575 0.02351,-0.10459 0.02351,-0.14125 0,-0.10458 -0.07842,-0.15685 -0.235367,-0.15685 h -1.875475 c -0.528409,0 -0.792564,-0.21716 -0.792564,-0.65011 0,-0.1098 0.01571,-0.23145 0.04699,-0.36744 l 0.266954,-1.08037 c 0.08367,-0.34394 0.232714,-0.60031 0.447237,-0.76642 0.214524,-0.16736 0.486428,-0.25106 0.816062,-0.25106 h 3.429211 l -0.07062,0.76115 c -0.104563,-0.0523 -0.24066,-0.0849 -0.408052,-0.098 -0.167392,-0.0132 -0.279851,-0.0196 -0.337428,-0.0196 H 89.71646 c -0.188382,0 -0.306139,0.098 -0.353123,0.2956 l -0.125554,0.48377 c -0.01571,0.0563 -0.02359,0.10345 -0.02359,0.14001 0,0.10329 0.07852,0.15567 0.235466,0.15567 h 1.875472 c 0.528265,0 0.792567,0.21702 0.792567,0.65122 0,0.10998 -0.01571,0.23287 -0.04713,0.36884 z"
       style="display:inline;opacity:1;fill:#ffffff;fill-opacity:1;fill-rule:nonzero;stroke:none;stroke-width:0.49044892"
       id="path3959"
       inkscape:connector-curvature="0" />
  </g>
</svg>
